<?xml version="1.0" standalone="no"?>
<!DOCTYPE svg PUBLIC "-//W3C//DTD SVG 20010904//EN"
 "http://www.w3.org/TR/2001/REC-SVG-20010904/DTD/svg10.dtd">
<svg version="1.0" xmlns="http://www.w3.org/2000/svg"
 width="512.000000pt" height="512.000000pt" viewBox="0 0 512.000000 512.000000"
 preserveAspectRatio="xMidYMid meet">

<g transform="translate(0.000000,512.000000) scale(0.100000,-0.100000)"
fill="#FFFFFF" stroke="none">
<path d="M1565 4305 c-282 -46 -542 -151 -766 -311 -96 -68 -279 -241 -348
-329 -432 -545 -512 -1278 -205 -1888 91 -181 170 -292 318 -446 253 -261 563
-429 928 -503 97 -20 143 -23 333 -23 190 0 235 3 334 23 804 163 1379 829
1427 1652 11 192 -22 436 -87 631 -42 130 -156 356 -237 468 -262 367 -656
622 -1097 712 -143 28 -462 36 -600 14z m433 -106 c647 -70 1180 -501 1393
-1127 60 -177 74 -276 73 -517 0 -188 -3 -234 -22 -319 -160 -721 -722 -1233
-1447 -1316 -677 -77 -1356 303 -1655 925 -93 194 -144 386 -158 594 -32 468
125 913 437 1242 154 163 289 263 486 359 285 140 584 193 893 159z"/>
<path d="M1717 4011 c-109 -36 -191 -107 -241 -211 -29 -60 -31 -73 -31 -170
0 -93 3 -112 27 -162 75 -160 258 -259 426 -230 130 23 244 111 300 229 24 52
27 70 27 163 0 99 -2 110 -33 172 -42 85 -129 168 -209 198 -81 32 -191 36
-266 11z m236 -124 c29 -12 65 -40 92 -69 126 -140 84 -352 -88 -445 -24 -13
-55 -18 -122 -18 -80 0 -95 3 -137 27 -159 94 -195 297 -77 432 88 99 207 126
332 73z"/>
<path d="M783 3486 c-142 -46 -247 -168 -273 -318 -30 -170 67 -351 228 -426
50 -24 69 -27 162 -27 97 0 110 2 172 32 84 39 147 103 190 191 31 62 33 74
33 167 0 93 -2 105 -33 167 -43 88 -106 152 -190 191 -58 28 -79 32 -157 34
-55 2 -106 -3 -132 -11z"/>
<path d="M2633 3466 c-57 -19 -135 -70 -174 -114 -18 -20 -46 -66 -63 -102
-28 -59 -31 -74 -31 -165 0 -92 3 -106 32 -167 103 -219 377 -296 579 -163
255 167 230 552 -44 687 -58 29 -77 33 -161 35 -62 2 -111 -2 -138 -11z"/>
<path d="M1729 2907 c-216 -61 -325 -304 -227 -506 31 -63 107 -137 176 -169
49 -23 70 -27 147 -27 79 1 98 4 149 29 76 37 140 101 174 174 23 49 27 70 27
152 0 82 -4 103 -27 152 -34 72 -104 143 -174 175 -66 30 -177 39 -245 20z
m208 -133 c115 -55 164 -199 108 -317 -80 -169 -317 -188 -422 -33 -78 114
-44 274 73 342 83 49 149 51 241 8z"/>
<path d="M762 2411 c-72 -27 -112 -53 -160 -105 -51 -55 -86 -124 -102 -199
-35 -171 63 -358 228 -435 51 -24 69 -27 167 -27 102 0 114 2 169 30 299 151
298 570 -1 717 -57 28 -78 33 -157 35 -71 3 -102 -1 -144 -16z"/>
<path d="M2613 2391 c-56 -21 -126 -66 -159 -102 -107 -119 -134 -298 -67
-442 130 -276 511 -308 686 -57 53 76 70 143 65 249 -7 150 -84 268 -216 333
-58 29 -77 33 -161 35 -75 3 -107 -1 -148 -16z"/>
<path d="M1712 1874 c-74 -20 -108 -39 -170 -98 -225 -212 -136 -577 162 -668
183 -55 381 34 468 210 31 62 33 73 33 172 0 95 -3 111 -28 162 -57 116 -164
202 -285 227 -68 14 -114 13 -180 -5z m200 -120 c152 -51 229 -246 155 -390
-50 -98 -143 -155 -252 -155 -246 0 -374 283 -212 467 76 86 196 117 309 78z"/>
<path d="M3516 1731 c-25 -27 -17 -72 14 -88 19 -10 182 -13 723 -13 l697 0 0
-360 0 -360 -1118 0 c-1071 0 -1120 -1 -1135 -18 -21 -23 -22 -56 -1 -76 14
-14 133 -16 1159 -16 l1144 0 28 24 28 24 3 408 c2 296 -1 416 -9 437 -25 59
-1 57 -792 57 -700 0 -724 -1 -741 -19z"/>
<path d="M3544 1539 c-48 -24 -54 -53 -54 -264 0 -294 -7 -288 296 -283 l206
3 29 33 29 32 0 206 c0 298 13 284 -275 283 -120 0 -219 -5 -231 -10z m396
-264 l0 -165 -165 0 -165 0 0 165 0 165 165 0 165 0 0 -165z"/>
<path d="M4310 1522 c-37 -38 -43 -80 -38 -289 5 -245 3 -243 283 -243 281 0
278 -2 283 244 5 210 -1 250 -38 288 l-28 28 -217 0 -217 0 -28 -28z m410
-247 l0 -165 -165 0 -165 0 0 165 0 165 165 0 165 0 0 -165z"/>
<path d="M3175 1245 c-21 -20 -25 -34 -25 -80 l0 -55 -63 0 c-75 0 -107 -18
-107 -60 0 -45 31 -60 123 -60 130 0 167 36 167 165 0 57 -3 69 -25 90 -13 14
-29 25 -35 25 -6 0 -22 -11 -35 -25z"/>
</g>
</svg>
